<?xml version="1.0" encoding="UTF-8"?>
<!DOCTYPE svg PUBLIC "-//W3C//DTD SVG 1.0//EN" "http://www.w3.org/TR/2001/REC-SVG-20010904/DTD/svg10.dtd">
<!-- Creator: CorelDRAW -->
<svg xmlns="http://www.w3.org/2000/svg" xml:space="preserve" width="0.666661in" height="0.133331in" version="1.0" style="shape-rendering:geometricPrecision; text-rendering:geometricPrecision; image-rendering:optimizeQuality; fill-rule:evenodd; clip-rule:evenodd"
viewBox="0 0 666.66 133.33"
 xmlns:xlink="http://www.w3.org/1999/xlink"
 xmlns:xodm="http://www.corel.com/coreldraw/odm/2003">
 <defs>
  <style type="text/css">
   <![CDATA[
    .fil0 {fill:#96989A}
   ]]>
  </style>
 </defs>
 <g id="Layer_x0020_1">
  <metadata id="CorelCorpID_0Corel-Layer"/>
  <path class="fil0" d="M190.37 122.87c0.78,-0.65 3.81,-4.3 4.16,-5.1 1.72,-2.04 1.59,-1.88 2.78,-3.92 1.57,-1.31 3.16,-3.81 4.17,-5.59 1.39,-1.02 3.64,-3.73 4.16,-5.43 2.11,-1.78 1.43,-1.39 2.78,-3.43 1.31,-1.25 1.78,-2.27 2.78,-3.52 0.88,-0.8 3.07,-3.57 3.47,-4.47 1.51,-1.81 5.09,-6.08 5.22,-7.52 0.09,-1.13 -2.54,-7.83 -3.36,-9.48 -3.67,-7.37 -8.43,-10.43 -12.27,-14.52 -2.51,-1.06 -4.43,-3.59 -7.63,-4.42 -0.59,-0.52 -0.14,-0.43 -1.21,-0.88 -1.69,-0.71 0.07,-0.33 -2.26,-0.52 0,3.16 0.14,3.54 1.39,5.86 0,3.67 0.46,4.48 0.23,6.85 -0.34,3.57 -1.31,4.75 -1.19,6.72 -2.14,1.02 -1.92,0.82 -3.17,2.78l-6.59 4.16c-1.7,0.24 -1.44,0.12 -2.63,0.7 -4.76,1.25 -8.33,2.66 -13.29,3.89 -8.62,2.13 -20.61,5.87 -28.81,2.99 -17.22,-6.05 -3.81,-18.97 3.81,-31.46l13.48 -21.91c-2.49,-3.4 -33.35,-22.99 -36.08,-27.06 3.5,0.07 18.29,6.33 22.5,8.03l21.91 8.63c3.09,-2.07 5.45,-4.51 9.01,-6.26 2.72,-1.34 5.74,-1.53 7.74,-8.31 0.66,-0.85 1.09,-1.41 1.99,-2.08 2.07,1.52 2.93,4.61 4.17,6.94 15.3,-10.25 15.96,-16.92 15.96,2.08 4.93,-0.41 4.49,-2.35 13.13,-1.38 5.52,0.62 7.69,3.18 11.85,4.15 -0.07,3.3 -2.07,5.54 -3.47,7.63 5.25,0 8.57,-0.33 12.92,0.96 14.76,4.38 7.53,7.87 6.51,12.23 3.88,-1.86 5.87,-1.75 10.41,-0.7 0.29,-1.08 15.08,-18.39 -0.85,-33.15 -9.88,-9.15 -24.27,-5.71 -41.48,-5.71 -10.62,0 -21.24,0 -31.87,0 -13.53,0 -76.59,-1.52 -83.8,0.92 -11.18,3.78 -17.57,15.7 -14.83,26.18 1.52,5.83 4.44,9.57 7.83,13.68 10.55,12.77 25.96,34.18 37.02,48.33l9.32 12.19c6.14,8.02 11.92,15.92 18.31,24.02 6.63,8.41 21.63,9.93 30.2,2.99l0.74 -0.66c2.46,-1.59 3.38,-2.87 4.86,-5.43zm378.18 -16.06l1.39 0c0,-3.15 -0.4,-3.38 0.65,-5.59 0.27,-0.57 0.06,0.53 0.74,-1.34l-4.17 0c0.67,1.84 0.49,0.81 0.74,1.34 0.98,2.09 0.65,1.52 0.65,5.59zm3.47 0.69c1.72,-1.26 1.16,-2.02 2.08,-3.47l2.08 2.78 0.78 -2.75c0.01,0.12 0.09,0.21 0.12,0.46l1.87 2.98c0,-3.85 -0.7,-4.11 -0.7,-7.63 -1.67,1.22 -1.85,1.39 -2.08,4.16l-1.39 0c-0.23,-2.78 -0.41,-2.94 -2.08,-4.16 0,3.52 -0.69,3.78 -0.69,7.63zm-406.63 -55.48c-2.65,1.34 -3.93,2.4 -5.55,4.83 5.9,1.37 9.37,1.15 12.67,-2.78 3.05,-2.71 1.33,-5.54 0.51,-9.02 -2.93,1.97 -5.7,4.01 -7.63,6.97zm228.3 51.32c5.48,0 2.18,0.29 4.17,-0.69l0 16.65 3.47 0 0 -15.96c4.89,0 4.77,0.33 4.86,-3.47l-12.49 0 0 3.47zm-29.15 15.96l11.1 0 0 -2.78 -8.33 0 0 -5.55 7.63 0 0 -3.47 -7.63 0 0 -4.16c8.63,0 8.24,0.69 8.33,-3.47l-11.1 0 0 19.43zm174.87 0l3.47 0 0 -8.33c6.16,4.13 2.63,8.33 11.1,8.33 -1.54,-2.31 -2.14,-2.93 -3.95,-5.07 -1.37,-1.62 -3.42,-3.9 -4.38,-5.33l8.48 -8.87c-7.86,-0.25 -4.35,2.16 -11.26,6.78l0 -6.94 -3.47 0 0 19.43zm-28.45 -10.41c0,-1.54 -0.43,-3.93 0.31,-5.22 1.9,-3.31 9.31,4.43 -0.31,5.22zm-3.47 10.41l3.47 0 0 -7.63c1.38,1.01 4.63,5.89 5.55,7.63l4.16 0c-1.72,-2.57 -5.04,-6.43 -5.55,-8.33 6.19,-1.65 5.47,-11.1 -3.47,-11.1l-4.16 0 0 19.43zm-36.78 -9.02c0,-10.04 13.88,-10.61 13.88,0 0,8.63 -13.88,8.04 -13.88,0zm6.94 9.72c14.09,0 12.33,-20.12 2.08,-20.12 -6.12,0 -12.59,1.57 -12.26,10.34 0.19,4.87 4.8,9.78 10.18,9.78zm-151.28 -0.69l3.47 0 0 -10.41c0,-2.65 0.21,-0.25 -0.7,-2.08 3,0.8 8.4,9.75 14.57,13.88l0 -20.81 -3.47 0 0 13.18c-2.79,-3.21 -10.66,-11.72 -13.88,-13.88l0 20.13zm106.17 -7.63c-1.91,-1.4 -2,-2.85 -2.98,-5.35 -0.86,-2.19 -1.67,-4.57 -2.57,-6.44l-3.47 0 6.24 15.96c0.95,2.46 0.78,3.39 2.78,4.85 0.36,-4.29 3.13,-8.73 4.17,-13.19l4.86 13.19c1.57,-1.15 1.67,-2.31 2.49,-4.45 0.83,-2.15 1.29,-3.42 2.17,-5.46 1.52,-3.52 3.49,-7.2 4.36,-10.91 -4.51,0 -3.78,0.87 -5.17,4.55 -0.9,2.39 -2.26,4.76 -2.46,7.25l-1.39 0c-0.23,-2.76 -1.24,-4.35 -1.98,-6.35 -0.97,-2.6 -0.97,-4.75 -2.88,-6.15 -0.91,3.89 -3.87,8.95 -4.17,12.49zm-80.49 -58.88l0 -16.11 0 -23.55 -15.27 0 0 17.57 0 20.14c0,5.77 -0.13,8.03 -3.24,11.09 -2.52,2.48 -6.74,3.95 -11.65,2.89 -9.28,-2 -9.39,-10.15 -9.39,-21.07l0 -30.61 -15.26 0 0 19.28c0,9.45 -0.79,22.56 1.61,29.76 7.24,21.72 33.81,19.22 42.81,12.74 6.41,-4.62 10.39,-11.05 10.39,-22.13zm122.85 4.06c-2.2,-4 -3.76,-9.22 -2.45,-15.96 1.69,-4.64 1.4,-5.38 4.6,-8.93 5.25,-5.81 12.61,-7.39 20.15,-5.06 4.39,1.36 5.82,3.6 8.91,5.67l0 -17.35c-14.67,-7.04 -31.23,-3.72 -42.5,8.85 -2.28,2.55 -5.97,8.91 -6.07,13.35 -0.09,0.15 -0.17,0.23 -0.2,0.5l-0.36 1.03c-1.33,4.95 -0.94,8 -0.07,12.98l1.33 4.35c0.38,4.24 4.13,8.84 6.32,11.61 2.42,3.06 6.62,6.46 10.61,8.13 5.56,2.33 16.79,4.4 23.6,2.64 2.74,-0.71 4.59,-1.72 7.35,-2.36l0 -17.35c-1.83,0.49 -16.56,15.32 -31.2,-2.08zm67.17 -16.65c1.48,4.3 2.72,2.22 -0.56,6.95 -1.52,2.2 -2.78,3.88 -4.36,6.23l-16.49 24.29 18.04 0c2.26,-3.37 12.55,-18.79 13.19,-21.51 2.63,0.7 1.48,0.78 4.16,4.87l10.41 16.65 18.74 0c-1.36,-2.03 -2.8,-3.84 -4.3,-6.11l-13.35 -19.57c-2.37,-2.76 -4.06,-5.53 -5.94,-8.33 0.86,-1.62 1.59,-2.39 2.17,-4.17l17.26 -26.37 -18.04 0c-1.68,3.17 -9.02,15.04 -9.72,18.04 -2.39,-1.75 -8.74,-14.52 -11.1,-18.04l-18.04 0 17.93 27.06zm-131.82 20.81l10.1 12.19c1.65,2.06 2.52,2.02 3.17,4.46l13.88 0 0 -9.02 0 -23.5 0 -32.01 -15.27 0 0 27.56 0 13.38 -16.5 -19.43 -17.5 -21.51 -13.88 0 0 27.47 0 15.52 0 21.54 15.26 0 0 -22.83 0 -18.11 20.73 24.29z"/>
 </g>
</svg>
